<?xml version="1.0" standalone="no"?>
<!DOCTYPE svg PUBLIC "-//W3C//DTD SVG 20010904//EN"
 "http://www.w3.org/TR/2001/REC-SVG-20010904/DTD/svg10.dtd">
<svg version="1.0" xmlns="http://www.w3.org/2000/svg"
 width="300.000000pt" height="300.000000pt" viewBox="0 0 300.000000 300.000000"
 preserveAspectRatio="xMidYMid meet">
<metadata>
Created by potrace 1.10, written by Peter Selinger 2001-2011
</metadata>
<g transform="translate(0.000000,300.000000) scale(0.100000,-0.100000)"
fill="#000000" stroke="none">
<path d="M1450 2441 c-8 -6 -27 -7 -44 -4 l-29 6 6 -54 c4 -30 7 -80 7 -111 0
-51 2 -58 20 -58 17 0 20 7 20 40 0 37 2 40 19 30 52 -27 111 12 111 75 0 61
-63 105 -110 76z m60 -50 c16 -31 12 -49 -14 -66 -19 -13 -29 -14 -45 -5 -24
12 -29 58 -9 78 18 18 56 14 68 -7z"/>
<path d="M1067 2418 c-17 -13 -15 -20 28 -113 26 -55 48 -101 49 -103 5 -5 36
10 36 18 0 4 -21 53 -48 109 -43 93 -49 101 -65 89z"/>
<path d="M1612 2407 c-15 -16 -22 -36 -22 -65 0 -37 4 -45 33 -62 33 -20 73
-26 94 -12 17 11 -1 36 -21 29 -23 -9 -66 10 -66 29 0 14 7 15 38 10 20 -3 47
-9 60 -12 20 -6 22 -3 22 29 0 68 -91 104 -138 54z m90 -24 c28 -25 22 -35
-19 -27 -50 9 -56 13 -42 30 15 19 38 18 61 -3z"/>
<path d="M1218 2404 c-73 -39 -41 -154 43 -154 55 0 93 36 92 86 -2 69 -70
104 -135 68z m85 -45 c13 -21 1 -65 -19 -73 -42 -16 -83 51 -52 82 17 17 58
11 71 -9z"/>
<path d="M1782 2314 l-30 -75 21 -8 c19 -7 24 -3 40 38 21 52 33 63 63 56 16
-3 23 1 27 15 4 16 0 20 -23 20 -16 0 -30 7 -34 15 -12 33 -34 12 -64 -61z"/>
<path d="M965 2288 c-31 -18 -44 -40 -45 -76 0 -40 38 -82 75 -82 34 0 82 25
95 49 14 27 13 31 -10 31 -11 0 -20 -4 -20 -10 0 -13 -52 -38 -67 -33 -23 8
-14 20 31 47 58 34 61 40 34 65 -24 23 -62 27 -93 9z m55 -28 c8 -5 12 -11 10
-13 -31 -25 -69 -45 -74 -40 -10 11 -7 22 14 43 22 22 29 24 50 10z"/>
<path d="M850 2205 c-11 -13 -10 -25 8 -68 12 -29 22 -55 22 -59 0 -4 -25 4
-56 18 -50 22 -57 23 -71 9 -8 -9 -14 -18 -12 -19 2 -2 40 -18 84 -35 71 -28
81 -29 96 -15 16 14 15 21 -18 97 -20 45 -37 83 -38 85 -1 1 -8 -5 -15 -13z"/>
<path d="M1934 2175 c-4 -9 -2 -21 4 -27 16 -16 47 -5 47 17 0 26 -42 34 -51
10z"/>
<path d="M2141 2119 c-52 -16 -97 -31 -99 -34 -3 -3 1 -13 10 -21 13 -13 20
-14 38 -4 12 6 22 10 23 8 1 -2 17 -20 36 -40 32 -35 34 -39 21 -63 -12 -22
-12 -28 2 -42 15 -14 21 -7 67 86 44 88 50 104 39 121 -16 25 -22 25 -137 -11z
m79 -58 c-11 -23 -22 -41 -23 -41 -2 0 -13 13 -25 29 l-21 30 42 14 c23 8 43
13 45 12 2 -2 -6 -21 -18 -44z"/>
<path d="M690 2010 c-44 -44 -34 -108 22 -139 48 -27 107 12 124 82 6 25 4 28
-12 25 -11 -2 -20 -13 -22 -25 -4 -27 -36 -56 -56 -51 -13 2 -9 13 20 57 29
42 33 55 23 62 -25 16 -78 10 -99 -11z m60 -19 c0 -13 -34 -71 -41 -71 -16 0
-18 35 -4 56 15 23 45 33 45 15z"/>
<path d="M2285 1948 c-49 -28 -91 -52 -93 -53 -2 -2 2 -13 8 -25 8 -15 15 -18
23 -11 7 5 49 29 94 53 76 41 80 45 70 65 -12 21 -13 21 -102 -29z"/>
<path d="M584 1856 c-17 -8 -37 -28 -46 -47 -27 -58 -41 -110 -32 -119 5 -4
50 -21 101 -37 l92 -29 21 69 c18 57 19 74 10 103 -20 58 -87 86 -146 60z m95
-60 c19 -20 22 -32 17 -58 -11 -57 -15 -59 -78 -40 -69 22 -72 24 -64 57 16
63 83 85 125 41z"/>
<path d="M2360 1772 c-52 -14 -96 -26 -98 -27 -2 -2 6 -36 16 -76 14 -53 24
-75 37 -77 15 -4 17 1 10 35 -15 69 -12 88 12 91 22 3 25 -3 38 -64 5 -25 10
-31 26 -27 10 3 19 6 19 7 0 0 -7 22 -14 48 -16 51 -13 58 19 58 18 0 24 -9
34 -56 10 -42 16 -54 28 -50 8 3 16 6 17 6 1 0 -7 36 -18 80 -11 44 -23 80
-26 79 -3 0 -48 -13 -100 -27z"/>
<path d="M2300 1545 c0 -24 3 -25 53 -25 55 0 77 -12 77 -42 0 -25 -36 -40
-86 -36 -40 3 -44 1 -44 -19 0 -21 4 -23 60 -23 51 0 65 4 85 25 27 26 31 46
15 75 -7 12 -7 28 0 44 l10 26 -85 0 c-84 0 -85 0 -85 -25z"/>
<path d="M555 1505 c-28 -27 -34 -88 -11 -117 48 -63 146 -27 146 54 0 45 -16
82 -31 72 -6 -3 -8 -22 -4 -45 5 -26 3 -45 -5 -54 -23 -27 -30 -15 -30 50 0
59 -2 65 -20 65 -12 0 -32 -11 -45 -25z m45 -65 c0 -41 -7 -49 -28 -28 -13 13
-16 50 -5 61 19 19 33 5 33 -33z"/>
<path d="M2236 1356 c-19 -41 -21 -96 -3 -120 13 -18 180 -69 191 -58 11 10 6
42 -6 42 -6 0 -4 6 5 13 10 6 20 29 23 49 5 30 2 41 -19 62 -25 25 -59 32 -92
20 -23 -9 -48 -62 -41 -90 5 -17 2 -24 -8 -24 -36 0 -43 74 -10 101 11 9 11
15 3 25 -17 21 -25 17 -43 -20z m158 -42 c9 -8 16 -24 16 -34 0 -20 -25 -50
-42 -50 -16 0 -48 31 -48 47 0 15 35 53 49 53 5 0 17 -7 25 -16z"/>
<path d="M558 1322 c-23 -4 -23 -16 -1 -38 12 -11 14 -19 6 -21 -6 -2 -9 -13
-6 -23 3 -11 6 -20 7 -20 0 1 35 9 75 19 75 18 87 26 73 48 -6 9 -18 9 -50 1
-47 -12 -69 -6 -80 20 -4 10 -15 16 -24 14z"/>
<path d="M680 1208 c-62 -27 -80 -45 -80 -84 0 -43 42 -95 62 -76 9 9 10 15 2
20 -6 4 -17 18 -23 31 -11 19 -10 26 2 39 14 13 17 11 30 -19 20 -50 42 -65
72 -51 35 16 37 62 4 98 -11 11 -16 23 -13 26 3 4 2 13 -3 21 -7 12 -15 11
-53 -5z m50 -59 c12 -22 7 -49 -9 -49 -13 0 -42 55 -34 64 13 12 33 6 43 -15z"/>
<path d="M2239 1171 c-1 -6 -2 -16 -3 -22 -1 -5 31 -23 69 -40 65 -27 71 -28
83 -12 11 15 6 20 -47 44 -80 37 -101 42 -102 30z"/>
<path d="M2203 1091 c-11 -17 -7 -22 31 -45 49 -29 61 -48 46 -77 -15 -26 -34
-24 -85 11 -44 30 -44 30 -55 9 -7 -11 -10 -22 -8 -23 2 -1 21 -13 43 -27 56
-36 72 -40 100 -27 22 10 53 67 37 69 -4 0 3 4 16 9 35 15 26 32 -40 75 -77
50 -71 48 -85 26z"/>
<path d="M2420 1095 c-16 -19 -5 -47 17 -43 11 2 18 12 18 27 0 29 -17 37 -35
16z"/>
<path d="M724 1012 c-49 -17 -70 -30 -67 -39 7 -18 24 -16 83 7 27 11 50 17
50 14 0 -3 -13 -25 -30 -49 -32 -47 -34 -53 -22 -73 7 -9 21 -8 65 7 31 11 57
17 57 13 0 -4 -13 -27 -29 -51 -24 -36 -27 -47 -18 -63 11 -17 13 -18 22 -2 6
9 27 44 48 77 35 54 37 61 23 75 -14 14 -20 14 -66 0 -27 -9 -50 -14 -50 -11
0 2 12 24 26 49 21 36 24 47 14 59 -16 19 -20 18 -106 -13z"/>
<path d="M2073 911 c-31 -19 -53 -49 -53 -70 0 -20 22 -11 50 19 25 27 60 40
60 23 0 -4 -19 -27 -42 -51 l-43 -43 24 -20 c28 -23 43 -24 82 -4 51 27 63 88
27 129 -32 35 -66 41 -105 17z m83 -96 c-13 -20 -56 -34 -56 -19 0 4 12 21 27
36 19 20 29 25 34 16 5 -7 2 -22 -5 -33z"/>
<path d="M945 859 c-4 -6 1 -16 11 -24 17 -12 17 -15 -10 -49 -22 -30 -31 -35
-42 -25 -11 9 -18 9 -29 -1 -14 -11 -13 -14 2 -25 14 -10 15 -16 5 -27 -10
-12 -8 -18 8 -33 18 -16 20 -16 26 -1 4 10 13 14 24 11 22 -7 37 12 22 27 -8
8 -2 22 19 47 33 40 36 57 13 89 -16 24 -39 29 -49 11z"/>
<path d="M1923 796 c-27 -12 -53 -42 -53 -60 0 -14 32 -4 50 14 21 21 55 27
64 11 3 -5 -19 -24 -49 -42 l-55 -33 22 -23 c24 -26 82 -31 109 -10 42 33 50
84 17 121 -29 32 -64 39 -105 22z m87 -84 c0 -24 -19 -42 -46 -42 -36 0 -37
16 -1 39 39 25 47 26 47 3z"/>
<path d="M1051 735 c-25 -45 -36 -55 -51 -50 -26 8 -36 -13 -14 -30 15 -11 16
-16 7 -26 -10 -10 -15 -9 -28 1 -24 20 -45 -4 -23 -26 21 -22 68 -21 84 1 7
10 20 15 28 12 18 -7 28 17 14 31 -7 7 -1 26 21 62 18 29 31 53 29 54 -2 1
-10 7 -19 14 -15 11 -21 5 -48 -43z"/>
<path d="M1802 731 c-11 -7 -10 -18 5 -60 l18 -52 -23 -17 c-15 -12 -21 -24
-16 -35 8 -22 21 -22 35 1 8 12 20 17 35 14 31 -6 30 6 -2 90 -27 70 -30 74
-52 59z"/>
<path d="M1154 718 c-25 -12 -44 -48 -44 -84 0 -38 42 -74 85 -74 50 0 71 14
85 54 15 46 -7 89 -51 105 -38 13 -47 13 -75 -1z m79 -49 c13 -21 1 -65 -19
-73 -23 -9 -64 20 -64 44 0 44 60 65 83 29z"/>
<path d="M1326 661 c-10 -11 -16 -31 -14 -48 2 -23 13 -33 56 -53 33 -16 51
-30 50 -40 -4 -19 -64 -26 -84 -9 -13 10 -17 10 -25 -2 -14 -22 -11 -26 22
-38 44 -15 81 -14 106 4 48 34 30 84 -43 115 -24 11 -44 26 -44 34 0 23 35 28
75 12 39 -17 55 -14 55 9 0 34 -126 47 -154 16z"/>
<path d="M1597 667 c-8 -21 8 -39 29 -35 11 2 20 13 22 26 3 18 -1 22 -21 22
-14 0 -27 -6 -30 -13z"/>
</g>
</svg>
